<?xml version="1.0" encoding="UTF-8"?>
<svg xmlns="http://www.w3.org/2000/svg" xmlns:xlink="http://www.w3.org/1999/xlink" width="16px" height="16px" viewBox="0 0 16 16" version="1.1">
<g id="surface1">
<path style=" stroke:none;fill-rule:nonzero;fill:rgb(0%,0%,0%);fill-opacity:1;" d="M 6 3 C 6 2.027344 5.304688 1.199219 4.347656 1.03125 C 3.390625 0.859375 2.453125 1.402344 2.121094 2.316406 C 1.789062 3.226562 2.160156 4.246094 3 4.730469 L 3 11.269531 C 2.214844 11.722656 1.832031 12.644531 2.066406 13.519531 C 2.300781 14.394531 3.09375 15 4 15 C 4.90625 15 5.699219 14.394531 5.933594 13.519531 C 6.167969 12.644531 5.785156 11.722656 5 11.269531 L 5 4.730469 C 5.617188 4.375 6 3.714844 6 3 Z M 4 2 C 4.550781 2 5 2.449219 5 3 C 5 3.550781 4.550781 4 4 4 C 3.449219 4 3 3.550781 3 3 C 3 2.449219 3.449219 2 4 2 Z M 4 14 C 3.449219 14 3 13.550781 3 13 C 3 12.449219 3.449219 12 4 12 C 4.550781 12 5 12.449219 5 13 C 5 13.550781 4.550781 14 4 14 Z M 4 14 "/>
<path style=" stroke:none;fill-rule:nonzero;fill:rgb(0%,0%,0%);fill-opacity:1;" d="M 13 11.269531 L 13 4.875 C 13 3.289062 11.710938 2 10.125 2 L 9.5 2 L 9.5 1 C 9.5 0.796875 9.378906 0.617188 9.191406 0.539062 C 9.003906 0.460938 8.789062 0.503906 8.648438 0.648438 L 6.648438 2.648438 C 6.453125 2.84375 6.453125 3.15625 6.648438 3.351562 L 8.648438 5.351562 C 8.789062 5.496094 9.003906 5.539062 9.191406 5.460938 C 9.378906 5.382812 9.5 5.203125 9.5 5 L 9.5 4 L 10.125 4 C 10.609375 4 11 4.390625 11 4.875 L 11 11.269531 C 10.214844 11.722656 9.832031 12.644531 10.066406 13.519531 C 10.300781 14.394531 11.09375 15 12 15 C 12.90625 15 13.699219 14.394531 13.933594 13.519531 C 14.167969 12.644531 13.785156 11.722656 13 11.269531 Z M 12 14 C 11.449219 14 11 13.550781 11 13 C 11 12.449219 11.449219 12 12 12 C 12.550781 12 13 12.449219 13 13 C 13 13.550781 12.550781 14 12 14 Z M 12 14 "/>
</g>
</svg>
