<?xml version="1.0" encoding="UTF-8"?>
<svg xmlns="http://www.w3.org/2000/svg" xmlns:xlink="http://www.w3.org/1999/xlink" width="16px" height="16px" viewBox="0 0 16 16" version="1.1">
<g id="surface1">
<path style=" stroke:none;fill-rule:nonzero;fill:rgb(0%,0%,0%);fill-opacity:1;" d="M 7.601562 0.820312 C 6.625 0.871094 5.699219 1.117188 4.796875 1.5625 C 4.199219 1.855469 3.746094 2.152344 3.289062 2.542969 C 2.117188 3.546875 1.242188 5.046875 0.941406 6.566406 C 0.828125 7.140625 0.804688 7.410156 0.804688 8.03125 C 0.804688 9.171875 1.027344 10.132812 1.53125 11.171875 C 2.433594 13.027344 4.117188 14.414062 6.105469 14.941406 C 9.179688 15.753906 12.277344 14.570312 14.039062 11.90625 C 15.054688 10.375 15.417969 8.488281 15.058594 6.625 C 14.773438 5.128906 14.074219 3.855469 12.949219 2.785156 C 11.507812 1.40625 9.605469 0.707031 7.601562 0.820312 Z M 8.566406 2.0625 C 9.539062 2.15625 10.503906 2.507812 11.375 3.085938 C 11.898438 3.429688 12.558594 4.101562 12.917969 4.648438 C 13.265625 5.171875 13.464844 5.578125 13.636719 6.09375 C 13.820312 6.648438 13.90625 7.074219 13.9375 7.59375 C 14.039062 9.300781 13.476562 10.875 12.328125 12.085938 C 11.460938 13.003906 10.445312 13.566406 9.148438 13.851562 C 8.863281 13.914062 8.742188 13.921875 8 13.917969 C 7.210938 13.917969 7.152344 13.914062 6.796875 13.835938 C 5.460938 13.535156 4.453125 12.960938 3.566406 11.992188 C 2.871094 11.226562 2.367188 10.21875 2.132812 9.132812 C 2.054688 8.765625 2.050781 8.679688 2.050781 8 C 2.050781 7.363281 2.058594 7.222656 2.117188 6.9375 C 2.257812 6.296875 2.375 5.933594 2.609375 5.453125 C 2.902344 4.855469 3.210938 4.398438 3.585938 3.992188 C 4.007812 3.546875 4.234375 3.351562 4.6875 3.046875 C 5.828125 2.28125 7.210938 1.929688 8.566406 2.0625 Z M 8.566406 2.0625 "/>
<path style=" stroke:none;fill-rule:nonzero;fill:rgb(0%,0%,0%);fill-opacity:1;" d="M 7.875 5.929688 C 7.710938 5.945312 7.320312 6.03125 7.195312 6.085938 C 6.828125 6.238281 6.425781 6.585938 6.226562 6.921875 C 6.035156 7.246094 5.960938 7.5 5.945312 7.90625 C 5.917969 8.5625 6.082031 8.988281 6.53125 9.441406 C 6.746094 9.660156 6.851562 9.734375 7.0625 9.835938 C 7.398438 10 7.660156 10.0625 8.019531 10.0625 C 8.601562 10.0625 9.078125 9.859375 9.484375 9.433594 C 9.867188 9.03125 10.066406 8.550781 10.066406 8 C 10.066406 7.640625 10.011719 7.417969 9.835938 7.0625 C 9.738281 6.851562 9.65625 6.742188 9.457031 6.542969 C 9.179688 6.273438 8.976562 6.136719 8.65625 6.03125 C 8.453125 5.960938 8.082031 5.914062 7.875 5.929688 Z M 7.875 5.929688 "/>
</g>
</svg>
